<svg width="11" height="11" viewBox="0 0 11 11" fill="none" xmlns="http://www.w3.org/2000/svg">
<g id="Icon">
<path id="Vector" d="M8.46023 3.41477C8.28919 3.24364 8.08611 3.1079 7.8626 3.01528C7.63908 2.92267 7.3995 2.875 7.15756 2.875C6.91561 2.875 6.67604 2.92267 6.45252 3.01528C6.229 3.1079 6.02592 3.24364 5.85488 3.41477L5.63482 3.63482C5.56031 3.70933 5.43951 3.70933 5.365 3.63482L5.14494 3.41477C4.79945 3.06927 4.33086 2.87518 3.84226 2.87518C3.35366 2.87518 2.88508 3.06927 2.53959 3.41477C2.1941 3.76026 2 4.22884 2 4.71744C2 5.20604 2.1941 5.67463 2.53959 6.02012L4.69044 8.17097C5.1375 8.61803 5.86232 8.61803 6.30939 8.17097L8.46023 6.02012C8.63136 5.84908 8.7671 5.646 8.85972 5.42248C8.95233 5.19896 9 4.95939 9 4.71744C9 4.4755 8.95233 4.23592 8.85972 4.0124C8.7671 3.78889 8.63136 3.58581 8.46023 3.41477Z" stroke="#404446" stroke-linecap="round" stroke-linejoin="round"/>
</g>
</svg>
