<svg width="11" height="11" viewBox="0 0 11 11" fill="none" xmlns="http://www.w3.org/2000/svg">
<path d="M8.99999 5.5C9.00141 6.04347 8.87443 6.5796 8.6294 7.0647C8.33887 7.64601 7.89224 8.13494 7.33953 8.47675C6.78682 8.81856 6.14986 8.99974 5.5 8.99999C5.05267 9.00115 4.61032 8.91534 4.1973 8.7483C4.024 8.67821 3.83586 8.64625 3.65155 8.67747L2.75654 8.7728C2.45161 8.80527 2.19449 8.5481 2.22704 8.24318L2.32253 7.34845C2.35375 7.16414 2.32179 6.976 2.2517 6.8027C2.08466 6.38968 1.99885 5.94733 2.00001 5.5C2.00026 4.85014 2.18144 4.21318 2.52325 3.66047C2.86506 3.10776 3.35399 2.66113 3.9353 2.3706C4.4204 2.12557 4.95653 1.99859 5.5 2.00001H5.70588C6.56414 2.04736 7.37478 2.40962 7.98258 3.01742C8.59038 3.62522 8.95264 4.43586 8.99999 5.29412V5.5Z" stroke="#404446" stroke-linecap="round" stroke-linejoin="round"/>
</svg>
