<svg width="251" height="80" viewBox="0 0 251 80" fill="none" xmlns="http://www.w3.org/2000/svg">
<path d="M10.9715 51.9C10.9515 53.48 11.2015 54.86 11.7215 56.04C12.2415 57.2 12.9915 58.1 13.9715 58.74C14.9715 59.36 16.1715 59.67 17.5715 59.67C19.0715 59.67 20.3815 59.35 21.5015 58.71C22.6415 58.07 23.4315 57.02 23.8715 55.56H31.7615C31.4215 57.76 30.5415 59.64 29.1215 61.2C27.7215 62.76 26.0215 63.95 24.0215 64.77C22.0215 65.59 19.9415 66 17.7815 66C14.7215 66 12.0215 65.36 9.68149 64.08C7.36148 62.78 5.55148 60.95 4.25148 58.59C2.95148 56.23 2.30148 53.45 2.30148 50.25C2.30148 47.15 2.89148 44.36 4.07148 41.88C5.25148 39.38 6.96148 37.41 9.20149 35.97C11.4615 34.51 14.1715 33.78 17.3315 33.78C20.4915 33.78 23.1415 34.45 25.2815 35.79C27.4415 37.11 29.0615 38.96 30.1415 41.34C31.2415 43.7 31.7915 46.43 31.7915 49.53V51.9H10.9715ZM10.9415 46.68H23.6015C23.6015 45.44 23.3715 44.3 22.9115 43.26C22.4515 42.22 21.7515 41.4 20.8115 40.8C19.8915 40.2 18.7315 39.9 17.3315 39.9C15.9715 39.9 14.8115 40.23 13.8515 40.89C12.9115 41.53 12.1915 42.37 11.6915 43.41C11.1915 44.45 10.9415 45.54 10.9415 46.68ZM49.393 66C45.233 66 41.993 64.57 39.673 61.71C37.353 58.83 36.193 54.83 36.193 49.71C36.193 46.47 36.663 43.66 37.603 41.28C38.543 38.9 39.933 37.06 41.773 35.76C43.613 34.44 45.863 33.78 48.523 33.78C49.643 33.78 50.683 33.91 51.643 34.17C52.623 34.41 53.513 34.75 54.313 35.19C55.113 35.63 55.813 36.14 56.413 36.72C57.013 37.3 57.503 37.92 57.883 38.58V20.82H66.673V65.4H60.313L59.323 59.04C59.043 59.9 58.653 60.74 58.153 61.56C57.653 62.38 57.013 63.13 56.233 63.81C55.453 64.47 54.493 65 53.353 65.4C52.233 65.8 50.913 66 49.393 66ZM51.313 59.7C53.513 59.7 55.153 58.93 56.233 57.39C57.333 55.85 57.883 53.25 57.883 49.59C57.863 47.47 57.613 45.71 57.133 44.31C56.653 42.91 55.933 41.87 54.973 41.19C54.033 40.49 52.833 40.14 51.373 40.14C49.473 40.14 47.893 40.87 46.633 42.33C45.373 43.77 44.743 46.19 44.743 49.59C44.743 53.05 45.333 55.6 46.513 57.24C47.693 58.88 49.293 59.7 51.313 59.7ZM85.6312 66C84.1912 66 82.7712 65.78 81.3712 65.34C79.9912 64.9 78.7312 64.25 77.5912 63.39C76.4512 62.53 75.5312 61.47 74.8312 60.21C74.1512 58.95 73.8112 57.49 73.8112 55.83V34.38H82.5712V54.72C82.5712 56.16 83.0412 57.34 83.9812 58.26C84.9212 59.18 86.3012 59.64 88.1212 59.64C89.8412 59.64 91.2012 59.2 92.2012 58.32C93.2212 57.42 93.7312 56.17 93.7312 54.57V34.38H102.401V65.4H95.8012L94.7812 59.25C94.4212 61.07 93.7412 62.47 92.7412 63.45C91.7612 64.41 90.6312 65.07 89.3512 65.43C88.0912 65.81 86.8512 66 85.6312 66ZM109.709 65.4V34.38H118.289V38.76C119.229 37.4 120.489 36.23 122.069 35.25C123.669 34.27 125.679 33.78 128.099 33.78C129.159 33.78 130.239 33.97 131.339 34.35C132.439 34.73 133.469 35.29 134.429 36.03C135.409 36.75 136.199 37.66 136.799 38.76C137.799 37.34 139.109 36.16 140.729 35.22C142.369 34.26 144.189 33.78 146.189 33.78C147.349 33.78 148.519 33.97 149.699 34.35C150.899 34.73 151.999 35.35 152.999 36.21C153.999 37.07 154.799 38.22 155.399 39.66C156.019 41.08 156.329 42.84 156.329 44.94V65.4H147.569V46.02C147.569 44.78 147.319 43.79 146.819 43.05C146.339 42.29 145.719 41.75 144.959 41.43C144.219 41.09 143.429 40.92 142.589 40.92C141.809 40.92 141.019 41.08 140.219 41.4C139.419 41.7 138.739 42.19 138.179 42.87C137.619 43.55 137.339 44.44 137.339 45.54V65.4H128.609V45.24C128.609 44.3 128.359 43.51 127.859 42.87C127.359 42.23 126.729 41.75 125.969 41.43C125.229 41.09 124.469 40.92 123.689 40.92C122.889 40.92 122.089 41.09 121.289 41.43C120.489 41.75 119.819 42.26 119.279 42.96C118.739 43.64 118.469 44.5 118.469 45.54V65.4H109.709ZM172.205 66C170.225 66 168.445 65.63 166.865 64.89C165.285 64.15 164.035 63.08 163.115 61.68C162.195 60.26 161.735 58.54 161.735 56.52C161.735 53.12 163.005 50.54 165.545 48.78C168.085 47 172.095 46.08 177.575 46.02L181.445 45.96V44.1C181.445 42.68 181.025 41.59 180.185 40.83C179.365 40.05 178.085 39.67 176.345 39.69C175.065 39.71 173.845 40.01 172.685 40.59C171.545 41.17 170.765 42.18 170.345 43.62H163.055C163.175 41.38 163.825 39.54 165.005 38.1C166.185 36.64 167.785 35.56 169.805 34.86C171.845 34.14 174.155 33.78 176.735 33.78C179.915 33.78 182.465 34.18 184.385 34.98C186.305 35.76 187.695 36.89 188.555 38.37C189.415 39.83 189.845 41.57 189.845 43.59V65.4H182.525L181.805 60.06C180.745 62.3 179.415 63.85 177.815 64.71C176.235 65.57 174.365 66 172.205 66ZM175.145 60.24C175.945 60.24 176.715 60.1 177.455 59.82C178.215 59.52 178.885 59.13 179.465 58.65C180.065 58.15 180.545 57.59 180.905 56.97C181.265 56.35 181.445 55.71 181.445 55.05V50.46L178.295 50.52C176.835 50.54 175.475 50.72 174.215 51.06C172.955 51.38 171.935 51.91 171.155 52.65C170.395 53.39 170.015 54.39 170.015 55.65C170.015 57.09 170.515 58.22 171.515 59.04C172.515 59.84 173.725 60.24 175.145 60.24ZM215.152 40.47H208.252L208.312 57C208.312 57.76 208.402 58.33 208.582 58.71C208.782 59.07 209.082 59.31 209.482 59.43C209.902 59.53 210.432 59.58 211.072 59.58H215.242V64.98C214.842 65.16 214.212 65.33 213.352 65.49C212.512 65.65 211.332 65.73 209.812 65.73C207.092 65.73 204.982 65.38 203.482 64.68C202.002 63.98 200.972 63 200.392 61.74C199.812 60.48 199.522 59.02 199.522 57.36V40.47H194.482V34.38H199.822L202.012 25.02H208.252V34.35H215.152V40.47ZM227.827 51.9C227.807 53.48 228.057 54.86 228.577 56.04C229.097 57.2 229.847 58.1 230.827 58.74C231.827 59.36 233.027 59.67 234.427 59.67C235.927 59.67 237.237 59.35 238.357 58.71C239.497 58.07 240.287 57.02 240.727 55.56H248.617C248.277 57.76 247.397 59.64 245.977 61.2C244.577 62.76 242.877 63.95 240.877 64.77C238.877 65.59 236.797 66 234.637 66C231.577 66 228.877 65.36 226.537 64.08C224.217 62.78 222.407 60.95 221.107 58.59C219.807 56.23 219.157 53.45 219.157 50.25C219.157 47.15 219.747 44.36 220.927 41.88C222.107 39.38 223.817 37.41 226.057 35.97C228.317 34.51 231.027 33.78 234.187 33.78C237.347 33.78 239.997 34.45 242.137 35.79C244.297 37.11 245.917 38.96 246.997 41.34C248.097 43.7 248.647 46.43 248.647 49.53V51.9H227.827ZM227.797 46.68H240.457C240.457 45.44 240.227 44.3 239.767 43.26C239.307 42.22 238.607 41.4 237.667 40.8C236.747 40.2 235.587 39.9 234.187 39.9C232.827 39.9 231.667 40.23 230.707 40.89C229.767 41.53 229.047 42.37 228.547 43.41C228.047 44.45 227.797 45.54 227.797 46.68Z" fill="#7B0086"/>
<g clip-path="url(#clip0_80445_1962)">
<path d="M84.61 4.92526C85.2008 4.64539 85.8463 4.50021 86.5 4.50021C87.1537 4.50021 87.7993 4.64539 88.39 4.92526L99.3565 10.1205C99.5476 10.2109 99.7093 10.3533 99.8231 10.5314C99.937 10.7095 99.9983 10.916 100 11.1274C100.002 11.3387 99.9444 11.5463 99.8337 11.7264C99.7231 11.9065 99.5639 12.0517 99.3745 12.1455L88.462 17.559C87.8522 17.8616 87.1807 18.019 86.5 18.019C85.8193 18.019 85.1478 17.8616 84.538 17.559L75.25 12.951V18C75.25 18.2984 75.1315 18.5845 74.9205 18.7955C74.7095 19.0065 74.4234 19.125 74.125 19.125C73.8267 19.125 73.5405 19.0065 73.3295 18.7955C73.1186 18.5845 73 18.2984 73 18V11.1938C72.9896 10.9714 73.0451 10.7508 73.1596 10.5599C73.2741 10.3689 73.4424 10.2161 73.6435 10.1205L84.61 4.92526ZM77.5 16.5803V20.25C77.5001 20.398 77.5293 20.5445 77.586 20.6812C77.6428 20.8179 77.726 20.942 77.8308 21.0465L77.8353 21.0533L77.887 21.1005L78.022 21.2265C78.7272 21.855 79.4895 22.4162 80.299 22.9028C81.802 23.805 83.9733 24.75 86.5 24.75C89.0268 24.75 91.198 23.805 92.7033 22.9028C93.5128 22.4162 94.2752 21.855 94.9803 21.2265L95.1153 21.1005L95.1513 21.0645L95.1648 21.051L95.167 21.0488L95.1715 21.0465C95.2759 20.9418 95.3587 20.8176 95.415 20.681C95.4714 20.5443 95.5003 20.3979 95.5 20.25V16.578L89.461 19.575C88.5407 20.0314 87.5273 20.2689 86.5 20.2689C85.4727 20.2689 84.4594 20.0314 83.539 19.575L77.5 16.5803Z" fill="#7B0086"/>
</g>
<defs>
<clipPath id="clip0_80445_1962">
<rect width="27" height="27" fill="white" transform="translate(73)"/>
</clipPath>
</defs>
</svg>
