<svg width="84" height="63" viewBox="0 0 84 63" fill="none" xmlns="http://www.w3.org/2000/svg">
<path d="M36.12 1.323C37.9579 0.452291 39.9662 0.00062561 42 0.00062561C44.0337 0.00062561 46.0421 0.452291 47.88 1.323L81.998 17.486C82.5923 17.7673 83.0954 18.2103 83.4496 18.7643C83.8037 19.3184 83.9947 19.9609 84.0005 20.6185C84.0064 21.276 83.8269 21.9218 83.4826 22.4821C83.1383 23.0423 82.6432 23.4942 82.054 23.786L48.104 40.628C46.2069 41.5692 44.1178 42.059 42 42.059C39.8822 42.059 37.7931 41.5692 35.896 40.628L6.99997 26.292V42C6.99997 42.9283 6.63123 43.8185 5.97485 44.4749C5.31847 45.1313 4.42823 45.5 3.49997 45.5C2.57172 45.5 1.68148 45.1313 1.0251 44.4749C0.368724 43.8185 -2.54998e-05 42.9283 -2.54998e-05 42V20.825C-0.032566 20.1331 0.14011 19.447 0.496307 18.8529C0.852504 18.2588 1.37633 17.7833 2.00197 17.486L36.12 1.323ZM14 37.583V49C14.0001 49.4604 14.091 49.9163 14.2676 50.3415C14.4442 50.7667 14.7029 51.153 15.029 51.478L15.043 51.499L15.204 51.646L15.624 52.038C17.8177 53.9932 20.1893 55.7391 22.708 57.253C27.384 60.06 34.139 63 42 63C49.861 63 56.616 60.06 61.299 57.253C63.8176 55.7391 66.1892 53.9932 68.383 52.038L68.803 51.646L68.915 51.534L68.957 51.492L68.964 51.485L68.978 51.478C69.3028 51.1524 69.5602 50.7659 69.7356 50.3407C69.911 49.9155 70.0008 49.4599 70 49V37.576L51.212 46.9C48.3487 48.32 45.196 49.0588 42 49.0588C38.804 49.0588 35.6512 48.32 32.788 46.9L14 37.583Z" fill="#090A0A"/>
</svg>
