<svg width="84" height="84" viewBox="0 0 84 84" fill="none" xmlns="http://www.w3.org/2000/svg">
<g id="mdi:teacher">
<path id="Vector" d="M75.8049 63.4941C77.9784 63.4941 80.0628 62.6299 81.5997 61.0917C83.1366 59.5535 84 57.4672 84 55.2918V10.1788C84 8.00342 83.1366 5.91712 81.5997 4.37888C80.0628 2.84064 77.9784 1.97647 75.8049 1.97647H32.6166C34.0507 4.47819 34.8293 7.308 34.8293 10.1788H75.8049V55.2918H38.9268V63.4941M55.3171 22.4824V30.6847H30.7317V84H22.5366V59.3929H14.3415V84H6.14634V51.1906H0V30.6847C0 28.5093 0.863412 26.423 2.4003 24.8848C3.93718 23.3465 6.02164 22.4824 8.19512 22.4824H55.3171ZM26.6341 10.1788C26.6341 12.3542 25.7707 14.4405 24.2339 15.9788C22.697 17.517 20.6125 18.3812 18.439 18.3812C16.2655 18.3812 14.1811 17.517 12.6442 15.9788C11.1073 14.4405 10.2439 12.3542 10.2439 10.1788C10.2439 8.00342 11.1073 5.91712 12.6442 4.37888C14.1811 2.84064 16.2655 1.97647 18.439 1.97647C20.6125 1.97647 22.697 2.84064 24.2339 4.37888C25.7707 5.91712 26.6341 8.00342 26.6341 10.1788Z" fill="#7B0086"/>
</g>
</svg>
